# xmcd
#
# Track frame offsets:
#	150
#	9105
#	33451
#	71476
#	114591
#	200034
#
# Disc length: 3873 seconds
#
# Revision: 0
# Processed by: cddbd v1.5.2PL0 Copyright (c) Steve Scherf et al.
# Submitted via: audiograbber 1.83.01
#
DISCID=490f1f06
DTITLE=Grateful Dead - 93-05-26 Cal Expo Amphitheatre, Sacramento CA
DYEAR=1900
DGENRE=
TTITLE0=Tuning 2
TTITLE1=Box Of Rain
TTITLE2=Victim Or The Crime
TTITLE3=Crazy Fingers
TTITLE4=Playing In The Band
TTITLE5=Drums
EXTD=
EXTT0=
EXTT1=
EXTT2=
EXTT3=
EXTT4=
EXTT5=
PLAYORDER=
